<svg width="152" height="45" viewBox="0 0 152 45" fill="none" xmlns="http://www.w3.org/2000/svg">
<path d="M136.367 41.2502L140.058 32.3863L133.399 16.1357H138.827L142.7 27.4499L146.644 16.1357H152L141.723 41.2502H136.367Z" fill="white"/>
<path d="M123.609 33.8996V19.9912H120.533V16.1357H123.645V14.4062C123.645 12.8207 123.91 11.5956 124.441 10.7309C124.972 9.84207 125.671 9.24154 126.54 8.92926C127.433 8.59296 128.386 8.4248 129.399 8.4248C130.171 8.4248 130.834 8.49687 131.389 8.641C131.968 8.7611 132.511 8.94127 133.018 9.18148L131.425 12.9649C131.208 12.8448 130.967 12.7487 130.702 12.6766C130.46 12.5805 130.207 12.5325 129.942 12.5325C129.435 12.5325 129.085 12.7126 128.892 13.073C128.699 13.4093 128.603 13.8657 128.603 14.4422V16.1357H132.258V19.9912H128.603V33.8996H123.609Z" fill="white"/>
<path d="M101.631 33.8996V16.1357H106.589V20.2434L105.865 20.2794C106.179 19.1504 106.637 18.2616 107.24 17.613C107.868 16.9404 108.579 16.472 109.375 16.2078C110.172 15.9195 110.968 15.7754 111.764 15.7754C113.815 15.7754 115.407 16.3519 116.541 17.5049C117.699 18.6339 118.278 20.1953 118.278 22.1891V33.8996H113.284V24.0268C113.284 22.6575 113.031 21.6607 112.524 21.0361C112.041 20.3875 111.269 20.0632 110.208 20.0632C109.412 20.0632 108.736 20.2554 108.181 20.6397C107.65 21.0241 107.252 21.6126 106.987 22.4053C106.722 23.198 106.589 24.231 106.589 25.5041V33.8996H101.631Z" fill="white"/>
<path d="M90.1234 34.2599C88.5311 34.2599 87.1559 34.0077 85.9979 33.5032C84.864 32.9988 83.9351 32.3142 83.2114 31.4494C82.5117 30.5846 81.993 29.6118 81.6553 28.5308C81.3416 27.4258 81.1848 26.2848 81.1848 25.1077C81.1848 23.9787 81.3416 22.8617 81.6553 21.7567C81.993 20.6518 82.4997 19.6549 83.1752 18.7661C83.8507 17.8532 84.7434 17.1326 85.8531 16.6041C86.9629 16.0516 88.2898 15.7754 89.8339 15.7754C91.2091 15.7754 92.4153 16.0156 93.4527 16.496C94.5143 16.9524 95.3949 17.601 96.0945 18.4418C96.7942 19.2585 97.3129 20.2314 97.6506 21.3604C98.0125 22.4894 98.1935 23.7025 98.1935 24.9996C98.1935 25.2158 98.1814 25.4681 98.1573 25.7563C98.1573 26.0446 98.1331 26.3689 98.0849 26.7292H86.1427C86.2874 27.8342 86.7579 28.6629 87.554 29.2154C88.3502 29.7439 89.3031 30.0081 90.4129 30.0081C91.3056 30.0081 92.1982 29.852 93.0909 29.5397C93.9835 29.2274 94.7676 28.783 95.4431 28.2065L97.723 31.6656C96.8303 32.2902 95.998 32.7946 95.226 33.179C94.4781 33.5633 93.694 33.8396 92.8737 34.0077C92.0776 34.1759 91.1608 34.2599 90.1234 34.2599ZM93.308 24.243C93.3562 24.0508 93.3924 23.8586 93.4166 23.6664C93.4648 23.4743 93.4889 23.2941 93.4889 23.126C93.4889 22.6455 93.3924 22.2131 93.1994 21.8288C93.0305 21.4204 92.7893 21.0721 92.4757 20.7839C92.162 20.4956 91.7881 20.2794 91.3538 20.1353C90.9195 19.9671 90.437 19.8831 89.9063 19.8831C89.0619 19.8831 88.3622 20.0512 87.8073 20.3875C87.2766 20.6998 86.8664 21.0962 86.5769 21.5766C86.3115 22.057 86.1427 22.5494 86.0703 23.0539H94.9727L93.308 24.243Z" fill="white"/>
<path d="M58.8066 33.8996V29.6838L73.3183 11.7398L74.1144 13.3973H59.6752V8.78516H78.5656V13.0009L64.5244 30.3324L63.8007 29.2875H79.0722V33.8996H58.8066Z" fill="white"/>
<g clip-path="url(#clip0_3012_189)">
<path d="M45.2357 13.0856C45.2357 16.723 43.743 20.0113 41.3342 22.3874C40.9723 22.027 40.5765 21.6779 40.1693 21.3626L23.9976 5.28153C23.6131 4.78604 23.1833 4.31306 22.731 3.87387C25.1171 1.48649 28.4194 0 32.0834 0C39.3438 0 45.2357 5.85586 45.2357 13.0856Z" fill="#3067FF"/>
<path d="M23.9975 5.28168L22.7309 4.02042L21.7131 5.03393C22.0298 4.62853 22.3691 4.23438 22.7309 3.87402C23.1833 4.31321 23.613 4.78619 23.9975 5.28168Z" fill="#3067FF"/>
<path d="M40.2034 23.3781L41.1985 22.3871L40.1694 21.3623C40.5766 21.6776 40.9724 22.0267 41.3343 22.3871C40.9724 22.7362 40.5992 23.074 40.2034 23.3781Z" fill="#3067FF"/>
<path d="M22.7309 3.87326C22.369 4.23362 22.0298 4.62776 21.7131 5.03317L5.08898 21.576C4.76102 21.8237 4.44437 22.094 4.13903 22.3868C1.86593 20.0332 0.463623 16.835 0.463623 13.3102C0.463623 6.09173 6.35558 0.224609 13.6159 0.224609C17.1556 0.224609 20.3673 1.60974 22.7309 3.87326Z" fill="#3067FF"/>
<path d="M5.53016 23.637C5.04387 23.2541 4.5689 22.8374 4.13916 22.387C4.4445 22.0942 4.76115 21.8239 5.08911 21.5762L4.27487 22.387L5.53016 23.637Z" fill="#3067FF"/>
<path d="M23.9975 5.28168L22.7309 4.02042L21.7131 5.03393C22.0298 4.62853 22.3691 4.23438 22.7309 3.87402C23.1833 4.31321 23.613 4.78619 23.9975 5.28168Z" fill="#3067FF"/>
<path d="M22.731 40.8899C20.3335 43.4237 16.9295 45.0003 13.1523 45.0003C5.89196 45.0003 0 39.1445 0 31.9147C0 28.1535 1.59456 24.7751 4.13907 22.3877C4.56881 22.8381 5.04379 23.2548 5.53007 23.6377L21.7132 39.7413C22.0298 40.1467 22.3691 40.5296 22.731 40.8899Z" fill="#3067FF"/>
<path d="M5.53016 23.637C5.04387 23.2541 4.5689 22.8374 4.13916 22.387C4.4445 22.0942 4.76115 21.8239 5.08911 21.5762L4.27487 22.387L5.53016 23.637Z" fill="#3067FF"/>
<path d="M23.5226 39.9664C23.2738 40.293 23.0137 40.5971 22.7309 40.8899C22.3691 40.5295 22.0298 40.1466 21.7131 39.7412L22.7309 40.7547L23.5226 39.9664Z" fill="#3067FF"/>
<path d="M45.2357 31.6895C45.2357 38.908 39.3438 44.7751 32.0834 44.7751C28.4194 44.7751 25.1171 43.2886 22.731 40.89C23.0137 40.5972 23.2738 40.2931 23.5226 39.9665L40.2033 23.3787C40.5991 23.0746 40.9723 22.7368 41.3342 22.3877C43.743 24.7638 45.2357 28.0521 45.2357 31.6895Z" fill="#3067FF"/>
<path d="M23.5226 39.9664C23.2738 40.293 23.0137 40.5971 22.7309 40.8899C22.3691 40.5295 22.0298 40.1466 21.7131 39.7412L22.7309 40.7547L23.5226 39.9664Z" fill="#3067FF"/>
<path d="M40.2034 23.3781L41.1985 22.3871L40.1694 21.3623C40.5766 21.6776 40.9724 22.0267 41.3343 22.3871C40.9724 22.7362 40.5992 23.074 40.2034 23.3781Z" fill="#3067FF"/>
<path d="M17.574 25.8108C17.0764 27.1171 16.2961 28.3446 15.2331 29.3919L15.0748 29.5495C14.1361 28.6149 13.4124 27.5338 12.9261 26.3851C11.8856 23.9865 11.8178 21.2725 12.7225 18.8401C13.2088 17.5 14.0004 16.2387 15.0861 15.1577L15.2444 15C16.6015 16.3514 17.4949 17.9842 17.9359 19.7185C18.4335 21.723 18.3204 23.8626 17.574 25.8108Z" fill="#3067FF"/>
<path d="M32.5584 26.1602C32.0608 27.3651 31.3144 28.5025 30.3305 29.4823L30.1722 29.6399C28.9508 28.4237 28.0914 26.9597 27.6164 25.4057C27.017 23.435 27.0283 21.3178 27.6616 19.3584C28.1366 17.8494 28.9848 16.4417 30.1835 15.248L30.3418 15.0791C31.3823 16.1264 32.1513 17.3314 32.6489 18.6151C33.5875 21.0476 33.5649 23.7503 32.5584 26.1602Z" fill="#3067FF"/>
<path d="M30.093 14.8649C28.9508 16.0022 27.5938 16.8131 26.1575 17.286C24.0314 17.9955 21.7131 17.973 19.5983 17.241C18.2073 16.7567 16.9068 15.9572 15.7985 14.8536L15.6289 14.6847C16.6015 13.7162 17.7324 12.9842 18.9424 12.4887C21.4417 11.4752 24.2576 11.4977 26.7343 12.5563C27.8878 13.0405 28.9734 13.75 29.9234 14.6959L30.093 14.8649Z" fill="#3067FF"/>
<path d="M30.0252 29.9554C28.9396 31.0365 27.6617 31.8248 26.3046 32.2977C23.9184 33.1536 21.2721 33.086 18.9312 32.1063C17.7664 31.6108 16.6807 30.8901 15.7307 29.9441L15.5498 29.764C16.7486 28.5703 18.1735 27.7482 19.6889 27.2865C21.5548 26.7009 23.5565 26.6784 25.4338 27.2076C27.051 27.6468 28.5777 28.5027 29.8556 29.7752L30.0252 29.9554Z" fill="#3067FF"/>
</g>
<defs>
<clipPath id="clip0_3012_189">
<rect width="45.2357" height="45" fill="white"/>
</clipPath>
</defs>
</svg>
