<svg width="101" height="111" viewBox="0 0 101 111" fill="none" xmlns="http://www.w3.org/2000/svg">
<path d="M83.8231 110.629L87.8124 101.008L80.616 83.3691H86.4826L90.6675 95.65L94.9305 83.3691H100.719L89.6115 110.629H83.8231Z" fill="white"/>
<path d="M70.0351 102.651V87.5546H66.7107V83.3697H70.0742V81.4924C70.0742 79.7715 70.361 78.4418 70.9347 77.5031C71.5083 76.5384 72.2644 75.8865 73.2031 75.5476C74.1678 75.1825 75.1978 75 76.2929 75C77.1272 75 77.8443 75.0782 78.444 75.2347C79.0697 75.365 79.6564 75.5606 80.2039 75.8213L78.4831 79.928C78.2484 79.7976 77.9877 79.6933 77.7008 79.6151C77.4401 79.5108 77.1663 79.4586 76.8795 79.4586C76.332 79.4586 75.9539 79.6542 75.7453 80.0453C75.5367 80.4103 75.4324 80.9057 75.4324 81.5315V83.3697H79.3826V87.5546H75.4324V102.651H70.0351Z" fill="white"/>
<path d="M46.2822 102.652V83.3706H51.6404V87.8292L50.8582 87.8684C51.1972 86.6429 51.6926 85.6781 52.3444 84.9741C53.0223 84.2441 53.7915 83.7356 54.652 83.4488C55.5124 83.1359 56.3728 82.9795 57.2333 82.9795C59.4496 82.9795 61.1704 83.6053 62.3959 84.8568C63.6475 86.0823 64.2732 87.7771 64.2732 89.9412V102.652H58.8759V91.9359C58.8759 90.4497 58.6021 89.3676 58.0546 88.6897C57.5331 87.9857 56.6988 87.6337 55.5515 87.6337C54.6911 87.6337 53.961 87.8423 53.3613 88.2595C52.7877 88.6766 52.3574 89.3155 52.0706 90.1759C51.7838 91.0363 51.6404 92.1575 51.6404 93.5394V102.652H46.2822Z" fill="white"/>
<path d="M33.8459 103.043C32.1251 103.043 30.6388 102.77 29.3873 102.222C28.1618 101.674 27.158 100.931 26.3758 99.9927C25.6196 99.0541 25.059 97.9981 24.694 96.8247C24.355 95.6253 24.1855 94.3868 24.1855 93.1092C24.1855 91.8837 24.355 90.6713 24.694 89.4719C25.059 88.2725 25.6066 87.1904 26.3366 86.2257C27.0667 85.2349 28.0314 84.4527 29.2308 83.879C30.4302 83.2793 31.8643 82.9795 33.533 82.9795C35.0193 82.9795 36.323 83.2402 37.4441 83.7617C38.5914 84.2571 39.5431 84.9611 40.2992 85.8737C41.0554 86.7602 41.616 87.8162 41.981 89.0417C42.3721 90.2672 42.5677 91.5839 42.5677 92.9919C42.5677 93.2265 42.5546 93.5003 42.5285 93.8132C42.5285 94.1261 42.5025 94.4781 42.4503 94.8692H29.5437C29.7002 96.0686 30.2086 96.9681 31.0691 97.5678C31.9295 98.1415 32.9594 98.4283 34.1588 98.4283C35.1236 98.4283 36.0883 98.2588 37.053 97.9198C38.0178 97.5809 38.8652 97.0985 39.5952 96.4727L42.0592 100.227C41.0945 100.905 40.1949 101.453 39.3606 101.87C38.5523 102.287 37.7049 102.587 36.8184 102.77C35.9579 102.952 34.9671 103.043 33.8459 103.043ZM37.2877 92.1705C37.3398 91.962 37.3789 91.7534 37.405 91.5448C37.4572 91.3362 37.4832 91.1406 37.4832 90.9581C37.4832 90.4366 37.3789 89.9673 37.1704 89.5501C36.9878 89.1069 36.7271 88.7288 36.3881 88.4159C36.0492 88.103 35.645 87.8684 35.1757 87.7119C34.7064 87.5294 34.1849 87.4381 33.6113 87.4381C32.6987 87.4381 31.9425 87.6206 31.3428 87.9857C30.7692 88.3246 30.326 88.7549 30.0131 89.2763C29.7263 89.7978 29.5437 90.3323 29.4655 90.8799H39.0868L37.2877 92.1705Z" fill="white"/>
<path d="M0 102.652V98.0759L15.6835 78.5987L16.5439 80.3978H0.938661V75.3916H21.3545V79.9676L6.17952 98.7799L5.3973 97.6457H21.9021V102.652H0Z" fill="white"/>
<g clip-path="url(#clip0_2997_143)">
<path d="M78 15.9935C78 20.4392 76.1849 24.4582 73.2562 27.3624C72.8162 26.9219 72.335 26.4952 71.84 26.1099L52.1774 6.45521C51.7099 5.8496 51.1875 5.27152 50.6375 4.73474C53.5387 1.81682 57.5537 0 62.0087 0C70.8362 0 78 7.15716 78 15.9935Z" fill="#3067FF"/>
<path d="M52.1774 6.45485L50.6374 4.9133L49.3999 6.15204C49.7849 5.65655 50.1974 5.17482 50.6374 4.73438C51.1874 5.27116 51.7099 5.84924 52.1774 6.45485Z" fill="#3067FF"/>
<path d="M71.8813 28.5731L73.0913 27.3619L71.8401 26.1094C72.3351 26.4948 72.8163 26.9214 73.2563 27.3619C72.8163 27.7886 72.3626 28.2015 71.8813 28.5731Z" fill="#3067FF"/>
<path d="M50.6375 4.73485C50.1975 5.17529 49.785 5.65702 49.4 6.15252L29.1875 26.3715C28.7887 26.6743 28.4037 27.0046 28.0325 27.3625C25.2687 24.4858 23.5637 20.5769 23.5637 16.2689C23.5637 7.44631 30.7275 0.275391 39.555 0.275391C43.8587 0.275391 47.7637 1.96833 50.6375 4.73485Z" fill="#3067FF"/>
<path d="M29.7237 28.8899C29.1325 28.4219 28.555 27.9126 28.0325 27.3621C28.4037 27.0042 28.7887 26.6739 29.1875 26.3711L28.1975 27.3621L29.7237 28.8899Z" fill="#3067FF"/>
<path d="M52.1774 6.45485L50.6374 4.9133L49.3999 6.15204C49.7849 5.65655 50.1974 5.17482 50.6374 4.73438C51.1874 5.27116 51.7099 5.84924 52.1774 6.45485Z" fill="#3067FF"/>
<path d="M50.6375 49.9762C47.7225 53.073 43.5838 54.9999 38.9913 54.9999C30.1638 54.9999 23 47.8428 23 39.0064C23 34.4094 24.9388 30.2802 28.0325 27.3623C28.555 27.9129 29.1325 28.4221 29.7237 28.8901L49.4 48.5723C49.785 49.0678 50.1975 49.5357 50.6375 49.9762Z" fill="#3067FF"/>
<path d="M29.7237 28.8899C29.1325 28.4219 28.555 27.9126 28.0325 27.3621C28.4037 27.0042 28.7887 26.6739 29.1875 26.3711L28.1975 27.3621L29.7237 28.8899Z" fill="#3067FF"/>
<path d="M51.5999 48.8475C51.2974 49.2467 50.9812 49.6183 50.6374 49.9762C50.1974 49.5357 49.7849 49.0678 49.3999 48.5723L50.6374 49.811L51.5999 48.8475Z" fill="#3067FF"/>
<path d="M78 38.7312C78 47.5537 70.8362 54.7247 62.0087 54.7247C57.5537 54.7247 53.5387 52.9079 50.6375 49.9762C50.9812 49.6183 51.2974 49.2467 51.5999 48.8475L71.8812 28.5735C72.3624 28.2019 72.8162 27.789 73.2562 27.3623C76.1849 30.2665 78 34.2855 78 38.7312Z" fill="#3067FF"/>
<path d="M51.5999 48.8475C51.2974 49.2467 50.9812 49.6183 50.6374 49.9762C50.1974 49.5357 49.7849 49.0678 49.3999 48.5723L50.6374 49.811L51.5999 48.8475Z" fill="#3067FF"/>
<path d="M71.8813 28.5731L73.0913 27.3619L71.8401 26.1094C72.3351 26.4948 72.8163 26.9214 73.2563 27.3619C72.8163 27.7886 72.3626 28.2015 71.8813 28.5731Z" fill="#3067FF"/>
<path d="M44.3676 31.5462C43.7626 33.1428 42.8139 34.6431 41.5214 35.9231L41.3289 36.1158C40.1876 34.9734 39.3076 33.6521 38.7164 32.2482C37.4514 29.3165 37.3689 25.9994 38.4689 23.0265C39.0601 21.3886 40.0226 19.847 41.3426 18.5257L41.5351 18.333C43.1851 19.9847 44.2714 21.9804 44.8076 24.1C45.4126 26.55 45.2751 29.1651 44.3676 31.5462Z" fill="#3067FF"/>
<path d="M62.5863 31.9732C61.9813 33.446 61.0738 34.8361 59.8776 36.0335L59.6851 36.2262C58.2001 34.7397 57.1551 32.9505 56.5776 31.0511C55.8488 28.6424 55.8626 26.0548 56.6326 23.6599C57.2101 21.8156 58.2413 20.0951 59.6988 18.6361L59.8913 18.4297C61.1563 19.7097 62.0913 21.1824 62.6963 22.7515C63.8376 25.7245 63.8101 29.0278 62.5863 31.9732Z" fill="#3067FF"/>
<path d="M59.5887 18.1685C58.1999 19.5586 56.5499 20.5496 54.8037 21.1277C52.2187 21.9948 49.3999 21.9673 46.8287 21.0726C45.1374 20.4808 43.5562 19.5036 42.2087 18.1547L42.0024 17.9483C43.1849 16.7646 44.5599 15.8699 46.0312 15.2643C49.0699 14.0256 52.4937 14.0531 55.5049 15.3469C56.9074 15.9388 58.2274 16.8059 59.3824 17.962L59.5887 18.1685Z" fill="#3067FF"/>
<path d="M59.5062 36.6113C58.1862 37.9326 56.6325 38.8961 54.9825 39.4741C52.0813 40.5202 48.8637 40.4376 46.0175 39.2402C44.6012 38.6346 43.2812 37.7537 42.1262 36.5975L41.9062 36.3773C43.3637 34.9183 45.0962 33.9136 46.9387 33.3493C49.2075 32.6336 51.6412 32.606 53.9237 33.2529C55.89 33.7897 57.7462 34.8358 59.3 36.3911L59.5062 36.6113Z" fill="#3067FF"/>
</g>
<defs>
<clipPath id="clip0_2997_143">
<rect width="55" height="55" fill="white" transform="translate(23)"/>
</clipPath>
</defs>
</svg>
