<svg width="135" height="40" viewBox="0 0 135 40" fill="none" xmlns="http://www.w3.org/2000/svg">
<path d="M121.115 36.5832L124.393 28.5072L118.479 13.7012H123.301L126.74 24.0096L130.243 13.7012H135L125.872 36.5832H121.115Z" fill="white"/>
<path d="M109.784 29.8861V17.214H107.052V13.7013H109.816V12.1255C109.816 10.681 110.052 9.56476 110.523 8.77686C110.995 7.96707 111.616 7.41991 112.388 7.13539C113.18 6.82898 114.027 6.67578 114.927 6.67578C115.613 6.67578 116.202 6.74144 116.695 6.87276C117.209 6.98219 117.691 7.14633 118.141 7.3652L116.727 10.8123C116.534 10.7028 116.32 10.6153 116.084 10.5496C115.87 10.4621 115.645 10.4183 115.409 10.4183C114.959 10.4183 114.648 10.5825 114.477 10.9108C114.305 11.2172 114.22 11.633 114.22 12.1583V13.7013H117.466V17.214H114.22V29.8861H109.784Z" fill="white"/>
<path d="M90.2644 29.8862V13.7013H94.6677V17.4439L94.0249 17.4767C94.3035 16.4481 94.7106 15.6383 95.2463 15.0473C95.8034 14.4345 96.4355 14.0077 97.1426 13.767C97.8497 13.5044 98.5568 13.373 99.2639 13.373C101.085 13.373 102.499 13.8983 103.507 14.9489C104.535 15.9775 105.049 17.4001 105.049 19.2167V29.8862H100.614V20.891C100.614 19.6435 100.389 18.7352 99.9389 18.1661C99.5104 17.5752 98.8247 17.2797 97.8819 17.2797C97.1748 17.2797 96.5748 17.4548 96.082 17.805C95.6106 18.1552 95.257 18.6914 95.0213 19.4137C94.7856 20.1359 94.6677 21.077 94.6677 22.237V29.8862H90.2644Z" fill="white"/>
<path d="M80.0436 30.2145C78.6294 30.2145 77.408 29.9847 76.3795 29.5251C75.3724 29.0655 74.5475 28.4417 73.9046 27.6538C73.2832 26.8659 72.8226 25.9795 72.5226 24.9946C72.244 23.9879 72.1047 22.9483 72.1047 21.8759C72.1047 20.8472 72.244 19.8295 72.5226 18.8227C72.8226 17.816 73.2725 16.9077 73.8725 16.0979C74.4725 15.2662 75.2653 14.6096 76.2509 14.1281C77.2366 13.6247 78.4151 13.373 79.7865 13.373C81.0078 13.373 82.0792 13.5919 83.0006 14.0296C83.9434 14.4455 84.7255 15.0364 85.3469 15.8024C85.9683 16.5466 86.429 17.4329 86.729 18.4616C87.0504 19.4903 87.2111 20.5955 87.2111 21.7774C87.2111 21.9743 87.2004 22.2041 87.1789 22.4668C87.1789 22.7294 87.1575 23.0249 87.1147 23.3532H76.5081C76.6366 24.3599 77.0545 25.115 77.7616 25.6184C78.4687 26.0999 79.3151 26.3406 80.3007 26.3406C81.0936 26.3406 81.8864 26.1984 82.6792 25.9139C83.472 25.6293 84.1684 25.2244 84.7684 24.6992L86.7933 27.8508C86.0004 28.4198 85.2612 28.8795 84.5755 29.2296C83.9113 29.5798 83.2149 29.8315 82.4863 29.9847C81.7792 30.1379 80.965 30.2145 80.0436 30.2145ZM82.872 21.0879C82.9149 20.9129 82.947 20.7378 82.9685 20.5627C83.0113 20.3876 83.0327 20.2234 83.0327 20.0702C83.0327 19.6325 82.947 19.2386 82.7756 18.8884C82.6256 18.5163 82.4113 18.199 82.1328 17.9363C81.8542 17.6737 81.5221 17.4767 81.1364 17.3454C80.7507 17.1922 80.3222 17.1156 79.8508 17.1156C79.1008 17.1156 78.4794 17.2688 77.9866 17.5752C77.5152 17.8597 77.1509 18.2208 76.8938 18.6586C76.6581 19.0963 76.5081 19.545 76.4438 20.0046H84.3505L82.872 21.0879Z" fill="white"/>
<path d="M52.2295 29.887V26.0459L65.1181 9.69689L65.8252 11.207H53.0009V7.00488H69.7786V10.8459L57.3078 26.6368L56.665 25.6848H70.2286V29.887H52.2295Z" fill="white"/>
<g clip-path="url(#clip0_2998_3)">
<path d="M40.0001 11.6316C40.0001 14.8649 38.6801 17.7878 36.5501 19.8999C36.2301 19.5796 35.8801 19.2693 35.5201 18.989L21.2201 4.6947C20.8801 4.25425 20.5001 3.83383 20.1001 3.44344C22.2101 1.32132 25.1301 0 28.3701 0C34.7901 0 40.0001 5.20521 40.0001 11.6316Z" fill="#3067FF"/>
<path d="M21.2199 4.69461L20.1 3.57349L19.2 4.47439C19.48 4.11403 19.78 3.76368 20.1 3.44336C20.5 3.83375 20.8799 4.25417 21.2199 4.69461Z" fill="#3067FF"/>
<path d="M35.55 20.7811L36.43 19.9002L35.52 18.9893C35.88 19.2695 36.23 19.5798 36.55 19.9002C36.23 20.2105 35.9 20.5108 35.55 20.7811Z" fill="#3067FF"/>
<path d="M20.0999 3.44344C19.7799 3.76376 19.4799 4.11411 19.1999 4.47447L4.49991 19.1792C4.20991 19.3994 3.92991 19.6396 3.65991 19.8999C1.64991 17.8078 0.409912 14.965 0.409912 11.8318C0.409912 5.41541 5.61991 0.200195 12.0399 0.200195C15.1699 0.200195 18.0099 1.43143 20.0999 3.44344Z" fill="#3067FF"/>
<path d="M4.88991 21.0105C4.45991 20.6702 4.03991 20.2998 3.65991 19.8994C3.92991 19.6392 4.20991 19.3989 4.49991 19.1787L3.77991 19.8994L4.88991 21.0105Z" fill="#3067FF"/>
<path d="M21.2199 4.69461L20.1 3.57349L19.2 4.47439C19.48 4.11403 19.78 3.76368 20.1 3.44336C20.5 3.83375 20.8799 4.25417 21.2199 4.69461Z" fill="#3067FF"/>
<path d="M20.1 36.3459C17.98 38.5981 14.97 39.9995 11.63 39.9995C5.21 39.9995 0 34.7943 0 28.3679C0 25.0245 1.41 22.0215 3.66 19.8994C4.04 20.2998 4.46 20.6702 4.89 21.0105L19.2 35.3248C19.48 35.6852 19.78 36.0255 20.1 36.3459Z" fill="#3067FF"/>
<path d="M4.88991 21.0105C4.45991 20.6702 4.03991 20.2998 3.65991 19.8994C3.92991 19.6392 4.20991 19.3989 4.49991 19.1787L3.77991 19.8994L4.88991 21.0105Z" fill="#3067FF"/>
<path d="M20.7999 35.5254C20.5799 35.8157 20.35 36.086 20.1 36.3462C19.78 36.0259 19.48 35.6856 19.2 35.3252L20.1 36.2261L20.7999 35.5254Z" fill="#3067FF"/>
<path d="M40.0001 28.1677C40.0001 34.5841 34.7901 39.7993 28.3701 39.7993C25.1301 39.7993 22.2101 38.478 20.1001 36.3459C20.3501 36.0856 20.5801 35.8153 20.8001 35.525L35.5501 20.7803C35.9001 20.51 36.2301 20.2097 36.5501 19.8994C38.6801 22.0115 40.0001 24.9344 40.0001 28.1677Z" fill="#3067FF"/>
<path d="M20.7999 35.5254C20.5799 35.8157 20.35 36.086 20.1 36.3462C19.78 36.0259 19.48 35.6856 19.2 35.3252L20.1 36.2261L20.7999 35.5254Z" fill="#3067FF"/>
<path d="M35.55 20.7811L36.43 19.9002L35.52 18.9893C35.88 19.2695 36.23 19.5798 36.55 19.9002C36.23 20.2105 35.9 20.5108 35.55 20.7811Z" fill="#3067FF"/>
<path d="M15.54 22.9426C15.1 24.1038 14.41 25.1949 13.47 26.1258L13.33 26.2659C12.5 25.4351 11.86 24.4742 11.43 23.4531C10.51 21.321 10.45 18.9086 11.25 16.7464C11.68 15.5552 12.38 14.4341 13.34 13.4731L13.48 13.333C14.68 14.5342 15.47 15.9857 15.86 17.5272C16.3 19.309 16.2 21.2109 15.54 22.9426Z" fill="#3067FF"/>
<path d="M28.79 23.2532C28.35 24.3242 27.69 25.3353 26.82 26.2061L26.68 26.3463C25.6 25.2652 24.84 23.9639 24.42 22.5825C23.89 20.8307 23.9 18.9489 24.46 17.2071C24.88 15.8658 25.63 14.6145 26.69 13.5535L26.83 13.4033C27.75 14.3343 28.43 15.4053 28.87 16.5465C29.7 18.7086 29.68 21.111 28.79 23.2532Z" fill="#3067FF"/>
<path d="M26.6101 13.2135C25.6001 14.2245 24.4001 14.9453 23.1301 15.3657C21.2501 15.9963 19.2001 15.9763 17.3301 15.3256C16.1001 14.8952 14.9501 14.1845 13.9701 13.2035L13.8201 13.0534C14.6801 12.1925 15.6801 11.5419 16.7501 11.1014C18.9601 10.2005 21.4501 10.2205 23.6401 11.1615C24.6601 11.5919 25.6201 12.2225 26.4601 13.0634L26.6101 13.2135Z" fill="#3067FF"/>
<path d="M26.55 26.6265C25.59 27.5874 24.46 28.2881 23.26 28.7086C21.15 29.4693 18.81 29.4093 16.74 28.5384C15.71 28.0979 14.75 27.4573 13.91 26.6165L13.75 26.4563C14.81 25.3952 16.07 24.6645 17.41 24.2541C19.06 23.7336 20.83 23.7136 22.49 24.184C23.92 24.5744 25.27 25.3352 26.4 26.4663L26.55 26.6265Z" fill="#3067FF"/>
</g>
<defs>
<clipPath id="clip0_2998_3">
<rect width="40" height="40" fill="white"/>
</clipPath>
</defs>
</svg>
