<svg width="20" height="20" viewBox="0 0 20 20" fill="none" xmlns="http://www.w3.org/2000/svg">
<path d="M20.0001 5.81633C20.0001 9.02859 17.396 11.6327 14.1838 11.6327C10.9715 11.6327 8.36743 9.02859 8.36743 5.81633C8.36743 2.60406 10.9715 0 14.1838 0C17.396 0 20.0001 2.60406 20.0001 5.81633Z" fill="#3067FF"/>
<ellipse cx="6.02043" cy="5.91886" rx="5.81633" ry="5.81633" fill="#3067FF"/>
<ellipse cx="5.81633" cy="14.1835" rx="5.81633" ry="5.81633" fill="#3067FF"/>
<ellipse cx="14.1838" cy="14.082" rx="5.81633" ry="5.81633" fill="#3067FF"/>
<path d="M18.2142 9.9494L10.051 1.78613L1.8877 9.9494L10.051 18.1127L18.2142 9.9494Z" fill="#E2EBFF"/>
<path d="M6.66609 13.1339C4.90052 11.3659 4.90252 8.50134 6.67056 6.73576L6.7413 6.66512V6.66512C8.50688 8.43316 8.50488 11.2977 6.73683 13.0633L6.66609 13.1339V13.1339Z" fill="#3067FF"/>
<path d="M13.3392 13.172C11.5736 11.404 11.5756 8.53942 13.3437 6.77385L13.4144 6.70321V6.70321C15.18 8.47125 15.178 11.3358 13.4099 13.1014L13.3392 13.172V13.172Z" fill="#3067FF"/>
<path d="M6.90771 6.52637V6.52637C8.65474 4.78178 11.4852 4.78376 13.2298 6.53078L13.3056 6.60664V6.60664C11.5586 8.35122 8.72805 8.34925 6.98347 6.60223L6.90771 6.52637Z" fill="#3067FF"/>
<path d="M6.87695 13.2295V13.2295C8.62397 11.4849 11.4545 11.4869 13.1991 13.2339L13.2748 13.3098V13.3098C11.5278 15.0543 8.69729 15.0524 6.95271 13.3054L6.87695 13.2295Z" fill="#3067FF"/>
</svg>
