<svg width="213" height="271" viewBox="0 0 213 271" fill="none" xmlns="http://www.w3.org/2000/svg">
<g opacity="0.1">
<path d="M139.009 269.644C143.666 271.236 148.967 268.095 150.82 262.641L179.552 178.506L162.757 172.763L133.985 257.019C132.147 262.424 134.392 268.066 139.009 269.644Z" fill="#0B0C0C"/>
<path d="M141.505 270.692C142.873 270.692 144.261 270.366 145.574 269.72C148.251 268.404 150.381 265.898 151.42 262.846L180.152 178.711C180.264 178.379 180.088 178.021 179.756 177.906L162.962 172.163C162.804 172.108 162.628 172.12 162.477 172.195C162.327 172.27 162.212 172.4 162.157 172.558L133.385 256.814C131.443 262.534 133.872 268.557 138.804 270.245C139.675 270.545 140.584 270.692 141.505 270.692ZM178.747 178.901L150.219 262.439C149.29 265.177 147.394 267.415 145.017 268.583C143.121 269.515 141.06 269.679 139.214 269.047C134.94 267.585 132.865 262.28 134.582 257.221L163.15 173.565L178.747 178.901Z" fill="#0B0C0C"/>
<path d="M165.73 100.132L220.051 138.879L241.211 160.824L249.51 175.509L249.565 175.625C251.199 178.166 250.266 184.024 247.179 189.984C244.123 195.877 239.864 199.958 236.843 200.192L236.935 200.238L220.963 201.954L191.091 197.183L127.68 174.514L48.8712 188.013L48.3143 188.028C68.173 184.402 94.8909 157.954 114.297 120.525C133.679 83.1389 139.86 46.1914 131.359 27.9701L131.377 27.9614L165.297 99.22L165.73 100.132Z" fill="white"/>
<path d="M35.2595 186.464C15.7862 176.355 19.557 130.516 43.6817 84.0801C67.8065 37.6438 103.15 8.19481 122.623 18.3039C142.096 28.4129 138.326 74.2519 114.201 120.688C90.076 167.124 54.7328 196.574 35.2595 186.464Z" fill="white"/>
<path d="M43.8414 189.095C52.3193 189.095 62.5344 184.356 73.5199 175.175C88.4962 162.662 103.178 143.356 114.865 120.817C132.565 86.6757 139.86 51.6551 133.451 31.5963C131.307 24.8927 127.743 20.2227 122.855 17.7132C113.171 12.7461 99.5135 16.969 84.3958 29.6031C69.4195 42.1161 54.7375 61.422 43.0508 83.9614C25.3504 118.102 18.0556 153.123 24.4646 173.182C26.6057 179.885 30.1723 184.555 35.0576 187.065C37.7066 188.423 40.6499 189.095 43.8414 189.095ZM114.048 16.9459C117.02 16.9459 119.782 17.5603 122.275 18.8411C126.852 21.189 130.205 25.611 132.242 31.9828C138.556 51.7358 131.293 86.3757 113.74 120.234C89.8524 166.305 54.8125 195.782 35.6377 185.94C31.0611 183.592 27.708 179.17 25.6708 172.798C19.357 153.045 26.6201 118.405 44.1733 84.547C64.9525 44.4669 94.1722 16.9459 114.048 16.9459Z" fill="#0B0C0C"/>
<path d="M43.8414 189.095C52.3193 189.095 62.5344 184.356 73.5199 175.175C88.4962 162.662 103.178 143.356 114.865 120.816C132.565 86.6754 139.86 51.6547 133.451 31.5959C131.307 24.8924 127.743 20.2224 122.855 17.7129C116.351 14.3755 107.873 15.2062 98.339 20.1185C89.1974 24.826 79.2825 33.1565 69.6676 44.2098C69.4368 44.4752 69.4656 44.8733 69.7311 45.104C69.9966 45.3319 70.3948 45.3059 70.6257 45.0406C90.1785 22.5646 109.971 12.5294 122.278 18.8407C126.855 21.1887 130.208 25.6106 132.245 31.9825C138.559 51.7355 131.296 86.3754 113.742 120.234C92.9631 160.314 63.7435 187.832 43.8674 187.835C40.8952 187.835 38.1337 187.22 35.6405 185.94C31.0639 183.592 27.7109 179.17 25.6736 172.798C19.3599 153.045 26.623 118.405 44.1762 84.5466C49.4107 74.448 55.2771 64.958 61.6081 56.3391C61.8159 56.0565 61.7553 55.6613 61.4725 55.4536C61.1897 55.2459 60.7944 55.3065 60.5866 55.5892C54.2152 64.2628 48.317 73.8076 43.0508 83.964C25.3504 118.105 18.0556 153.126 24.4646 173.184C26.6057 179.888 30.1723 184.558 35.0576 187.067C37.7066 188.423 40.6499 189.095 43.8414 189.095Z" fill="#0B0C0C"/>
<path d="M79.4497 127.366C74.9406 125.025 75.8137 114.411 81.3998 103.659C86.9858 92.9063 95.1695 86.0874 99.6786 88.4282C104.188 90.7689 103.315 101.383 97.7285 112.135C92.1425 122.887 83.9587 129.706 79.4497 127.366Z" fill="white"/>
<path d="M81.438 128.463C86.3955 128.463 93.3151 122.06 98.3274 112.394C102.483 104.381 104.185 96.1253 102.662 91.363C102.125 89.6842 101.219 88.5045 99.9665 87.8641C95.0609 85.346 86.658 92.1793 80.8349 103.412C76.6796 111.425 74.9771 119.68 76.4978 124.442C77.0345 126.121 77.9406 127.301 79.193 127.941C79.8769 128.293 80.6329 128.463 81.438 128.463ZM97.707 88.6054C98.3188 88.6054 98.8815 88.7295 99.3864 88.9891C100.327 89.4708 101.023 90.3996 101.453 91.7467C102.878 96.2032 101.207 104.078 97.1992 111.808C91.8839 122.06 83.8994 128.931 79.7701 126.813C78.8294 126.332 78.1339 125.403 77.704 124.056C76.2814 119.599 77.9493 111.725 81.9574 103.994C86.6205 95.0004 93.3382 88.6054 97.707 88.6054Z" fill="#0B0C0C"/>
<path d="M48.2333 178.322C55.6695 178.322 64.6236 174.171 74.25 166.126C87.3593 155.171 100.212 138.274 110.438 118.547C125.934 88.6604 132.317 57.9982 126.705 40.4316C124.823 34.5473 121.692 30.4455 117.396 28.2417C107.535 23.1823 93.0064 29.009 77.5367 44.2276C77.2885 44.4728 77.2828 44.8737 77.528 45.1218C77.7733 45.3699 78.1744 45.3728 78.4226 45.1305C93.4797 30.3215 107.478 24.5756 116.816 29.3696C120.801 31.4147 123.721 35.2655 125.495 40.8181C131.013 58.0819 124.662 88.3604 109.313 117.964C91.1481 152.999 65.6191 177.062 48.2651 177.064C45.6738 177.064 43.2672 176.528 41.0943 175.412C37.1093 173.366 34.1891 169.516 32.4145 163.963C26.8972 146.702 33.2484 116.421 48.5969 86.8172C53.2312 77.881 58.4253 69.4929 64.0349 61.8865C64.2427 61.6038 64.1821 61.2086 63.9022 61.001C63.6194 60.7933 63.2241 60.8539 63.0163 61.1337C57.3663 68.7949 52.1376 77.2378 47.4744 86.2345C31.9816 116.121 25.5957 146.783 31.2111 164.35C33.0926 170.234 36.2234 174.336 40.5201 176.539C42.843 177.734 45.4314 178.322 48.2333 178.322Z" fill="#0B0C0C"/>
<path d="M220.966 202.589C220.989 202.589 221.012 202.589 221.032 202.586L237.004 200.87C237.099 200.861 237.189 200.829 237.267 200.78C240.565 200.252 244.72 196.105 247.741 190.275C250.93 184.122 251.885 178.123 250.122 175.319L250.082 175.235L241.762 160.513C241.737 160.467 241.705 160.423 241.667 160.386L220.507 138.441C220.481 138.412 220.449 138.389 220.418 138.366L166.229 99.7134L131.948 27.6904C131.876 27.5376 131.743 27.4193 131.581 27.3645C131.42 27.3068 131.244 27.3212 131.091 27.3962C130.785 27.5491 130.641 27.927 130.785 28.2385C139.468 46.8464 132.614 83.817 113.734 120.234C94.8244 156.708 68.4875 183.701 48.1988 187.405C47.8727 187.466 47.6476 187.766 47.6823 188.094C47.7169 188.423 47.9997 188.648 48.3286 188.663L48.8855 188.648C48.9173 188.648 48.9462 188.642 48.975 188.64L127.619 175.169L190.872 197.783C190.909 197.795 190.947 197.806 190.984 197.812L220.856 202.583C220.9 202.586 220.934 202.589 220.966 202.589ZM236.525 199.647L220.983 201.317L191.253 196.569L127.899 173.92C127.795 173.882 127.686 173.874 127.579 173.891L56.7691 186.018C75.9035 177.627 98.2641 152.834 114.865 120.816C131.342 89.035 138.7 56.7488 134.672 36.3468L165.158 100.403C165.204 100.501 165.274 100.585 165.363 100.645L219.636 139.361L240.701 161.208L248.997 175.902C249.008 175.925 249.02 175.948 249.034 175.968C250.541 178.313 249.525 184.085 246.616 189.692C243.765 195.19 239.636 199.341 236.793 199.56C236.698 199.569 236.606 199.598 236.525 199.647Z" fill="#0B0C0C"/>
<path d="M165.629 99.9152L131.379 27.9614L131.362 27.9701C139.863 46.1914 133.682 83.1389 114.299 120.525C94.8936 157.954 68.1758 184.402 48.317 188.028L48.874 188.013L127.553 174.537L129.377 174.231C138.521 172.619 150.742 160.72 159.479 143.774C168.448 126.38 170.029 109.033 166.061 100.792L165.629 99.9152Z" fill="white"/>
<path d="M48.317 188.66C48.3228 188.66 48.3286 188.66 48.3344 188.66L48.8913 188.645C48.923 188.645 48.9519 188.64 48.9807 188.637L127.66 175.16L129.481 174.857C139.144 173.153 151.423 160.778 160.042 144.065C169.833 125.077 170.321 108.182 166.633 100.521L166.197 99.6413L131.951 27.6904C131.878 27.5376 131.746 27.4193 131.584 27.3645C131.423 27.3068 131.247 27.3212 131.094 27.3962C130.788 27.5491 130.643 27.927 130.788 28.2385C139.471 46.8464 132.617 83.817 113.737 120.234C94.8272 156.708 68.4903 183.701 48.2016 187.405C47.8755 187.466 47.6505 187.766 47.6851 188.094C47.7226 188.415 47.9938 188.66 48.317 188.66ZM134.669 36.3468L165.057 100.189C165.057 100.192 165.06 100.195 165.063 100.198L165.496 101.075C169.163 108.69 168.084 125.708 158.919 143.486C150.473 159.867 138.559 171.97 129.27 173.608L127.452 173.911L56.769 186.018C75.9034 177.627 98.264 152.834 114.865 120.816C131.342 89.0321 138.7 56.7488 134.669 36.3468Z" fill="#0B0C0C"/>
<path d="M192.185 197.357L190.921 197.103C197.797 198.534 208.642 188.172 216.294 173.407C224.1 158.35 225.589 143.313 220.051 138.876L220.758 139.609L240.813 160.429C244.111 164.122 242.888 174.716 237.581 184.953C232.459 194.833 225.222 201.854 220.294 201.828L192.185 197.357Z" fill="#0B0C0C"/>
<path d="M220.322 202.465C225.563 202.465 232.884 195.392 238.144 185.248C243.523 174.875 244.873 164.026 241.286 160.011L221.615 139.589C221.266 139.13 220.877 138.726 220.447 138.383C220.187 138.175 219.809 138.204 219.584 138.449C219.359 138.698 219.364 139.075 219.595 139.315L220.735 140.497C224.743 145.877 222.746 159.584 215.731 173.115C208.163 187.717 197.613 197.735 191.135 196.5L191.042 196.483C190.699 196.411 190.367 196.636 190.298 196.976C190.228 197.319 190.448 197.651 190.788 197.723C190.82 197.732 190.855 197.737 190.886 197.743L192.058 197.977C192.067 197.98 192.075 197.98 192.084 197.983L220.196 202.456C220.239 202.462 220.282 202.465 220.322 202.465ZM223.303 143.166L240.36 160.874C243.546 164.439 242.086 174.898 237.021 184.668C232.058 194.241 225.055 201.179 220.348 201.202L195.538 197.253C202.233 194.896 210.491 185.983 216.857 173.704C222.905 162.036 225.228 150.14 223.303 143.166Z" fill="#0B0C0C"/>
<path d="M99.6752 88.4263C104.194 90.7454 103.53 101.447 97.762 112.102C88.0866 129.969 80.3993 127.854 79.4961 127.528C79.4788 127.523 79.4702 127.546 79.4846 127.554L96.0913 140.915C100.959 134.073 105.62 126.467 109.876 118.252C113.956 110.38 117.37 102.529 120.094 94.925L99.6752 88.4263Z" fill="#0B0C0C"/>
<path d="M96.0913 141.55C96.1202 141.55 96.149 141.547 96.1779 141.545C96.351 141.521 96.5068 141.426 96.6078 141.285C101.606 134.261 106.26 126.612 110.439 118.546C114.45 110.81 117.898 102.936 120.691 95.1417C120.749 94.9801 120.74 94.8013 120.662 94.6484C120.584 94.4955 120.452 94.3773 120.287 94.3253L99.8686 87.8266C99.554 87.7285 99.2164 87.8843 99.0894 88.19C98.9625 88.4929 99.0923 88.8448 99.3867 88.9948C100.362 89.4938 101.081 90.4717 101.522 91.8995C102.927 96.4397 101.193 104.438 97.2052 111.805C87.7692 129.234 80.509 127.226 79.7097 126.937C79.424 126.834 79.0864 126.955 78.9335 127.22C78.7776 127.488 78.844 127.855 79.0835 128.051L95.6931 141.412C95.8085 141.501 95.947 141.55 96.0913 141.55ZM119.277 95.332C116.544 102.872 113.194 110.481 109.316 117.964C105.27 125.766 100.78 133.177 95.9643 140.001L81.5622 128.414C84.8634 128.256 91.0617 125.807 98.3219 112.402C102.526 104.637 104.258 96.4397 102.734 91.5187C102.538 90.887 102.292 90.3217 101.998 89.8284L119.277 95.332Z" fill="#0B0C0C"/>
</g>
</svg>
