<svg width="195" height="210" viewBox="0 0 195 210" fill="none" xmlns="http://www.w3.org/2000/svg">
<g opacity="0.1">
<path d="M86.758 208.89C83.15 210.123 79.0435 207.69 77.6084 203.464L55.3501 138.286L68.3604 133.837L90.6499 199.109C92.0739 203.297 90.3348 207.667 86.758 208.89Z" fill="#0B0C0C"/>
<path d="M84.8244 209.701C83.7648 209.701 82.6895 209.449 81.6724 208.948C79.5979 207.929 77.9481 205.988 77.1434 203.623L54.8851 138.445C54.7979 138.188 54.9343 137.911 55.1913 137.822L68.2016 133.373C68.3246 133.33 68.4609 133.339 68.5772 133.397C68.6934 133.455 68.7828 133.556 68.8253 133.679L91.1149 198.951C92.6193 203.382 90.7371 208.048 86.9167 209.355C86.2416 209.587 85.5375 209.701 84.8244 209.701ZM55.9737 138.593L78.0733 203.308C78.7931 205.429 80.2618 207.163 82.1038 208.068C83.5725 208.79 85.1686 208.917 86.5993 208.428C89.91 207.295 91.5173 203.185 90.1872 199.266L68.0563 134.459L55.9737 138.593Z" fill="#0B0C0C"/>
<path d="M66.0578 77.5708L23.9756 107.588L7.58313 124.589L1.154 135.965L1.11152 136.054C-0.153737 138.023 0.568302 142.561 2.96022 147.178C5.32756 151.743 8.62707 154.905 10.9676 155.086L10.896 155.122L23.2692 156.451L46.4105 152.755L95.5343 135.194L156.586 145.652L157.018 145.663C141.634 142.854 120.936 122.365 105.902 93.3693C90.8869 64.4069 86.0985 35.7842 92.6842 21.6683L92.6707 21.6616L66.3931 76.8647L66.0578 77.5708Z" fill="white"/>
<path d="M167.131 144.452C182.217 136.62 179.296 101.109 160.607 65.1359C141.917 29.1624 114.537 6.34862 99.4518 14.18C84.3661 22.0113 87.2873 57.5222 105.976 93.4957C124.666 129.469 152.045 152.283 167.131 144.452Z" fill="white"/>
<path d="M160.483 146.49C153.915 146.49 146.002 142.819 137.491 135.706C125.889 126.013 114.515 111.057 105.462 93.5956C91.7497 67.1471 86.0985 40.0171 91.0635 24.4779C92.7244 19.2847 95.4852 15.6669 99.272 13.7228C106.774 9.87488 117.354 13.1463 129.066 22.9338C140.668 32.6274 152.042 47.5834 161.095 65.0444C174.808 91.4929 180.459 118.623 175.494 134.162C173.835 139.355 171.072 142.973 167.288 144.917C165.235 145.97 162.955 146.49 160.483 146.49ZM106.095 13.1284C103.792 13.1284 101.653 13.6044 99.7213 14.5965C96.1759 16.4155 93.5783 19.8411 92.0001 24.7773C87.109 40.0797 92.7356 66.9147 106.334 93.1442C124.839 128.835 151.984 151.67 166.838 144.046C170.384 142.227 172.981 138.801 174.559 133.865C179.451 118.563 173.824 91.7275 160.226 65.498C144.128 34.4485 121.492 13.1284 106.095 13.1284Z" fill="#0B0C0C"/>
<path d="M160.483 146.49C153.915 146.49 146.002 142.819 137.491 135.706C125.889 126.012 114.515 111.056 105.462 93.5952C91.7497 67.1468 86.0985 40.0167 91.0635 24.4775C92.7244 19.2843 95.4852 15.6665 99.272 13.7224C104.311 11.137 110.878 11.7806 118.264 15.5861C125.346 19.2329 133.027 25.6864 140.476 34.2493C140.655 34.4549 140.632 34.7632 140.426 34.942C140.221 35.1185 139.912 35.0984 139.733 34.8928C124.586 17.481 109.253 9.7069 99.7191 14.5962C96.1737 16.4151 93.5761 19.8407 91.9979 24.7769C87.1067 40.0793 92.7333 66.9144 106.332 93.1439C122.429 124.193 145.065 145.511 160.463 145.513C162.765 145.513 164.905 145.037 166.836 144.045C170.381 142.226 172.979 138.801 174.557 133.865C179.448 118.562 173.822 91.7271 160.224 65.4976C156.168 57.6744 151.624 50.3226 146.719 43.6457C146.558 43.4267 146.605 43.1206 146.824 42.9597C147.043 42.7988 147.35 42.8457 147.511 43.0647C152.446 49.7841 157.016 57.1783 161.095 65.0463C174.808 91.4947 180.459 118.625 175.494 134.164C173.835 139.357 171.072 142.975 167.288 144.919C165.235 145.969 162.955 146.49 160.483 146.49Z" fill="#0B0C0C"/>
<path d="M132.898 98.6685C136.391 96.8552 135.714 88.6326 131.387 80.303C127.059 71.9734 120.72 66.6909 117.226 68.5042C113.733 70.3176 114.41 78.5401 118.737 86.8697C123.065 95.1994 129.404 100.482 132.898 98.6685Z" fill="white"/>
<path d="M131.357 99.5196C127.517 99.5196 122.156 94.5589 118.273 87.0708C115.054 80.8631 113.735 74.4678 114.915 70.7785C115.331 69.478 116.033 68.564 117.003 68.0679C120.804 66.1172 127.313 71.4109 131.824 80.1123C135.043 86.32 136.362 92.7154 135.184 96.4046C134.768 97.7052 134.066 98.6191 133.096 99.1152C132.566 99.3878 131.981 99.5196 131.357 99.5196ZM118.754 68.6422C118.28 68.6422 117.844 68.7383 117.453 68.9394C116.724 69.3126 116.185 70.0321 115.852 71.0757C114.748 74.5281 116.042 80.6285 119.147 86.6172C123.265 94.5589 129.45 99.8816 132.649 98.2415C133.378 97.8683 133.917 97.1488 134.25 96.1052C135.352 92.6528 134.06 86.5524 130.955 80.5637C127.342 73.5963 122.138 68.6422 118.754 68.6422Z" fill="#0B0C0C"/>
<path d="M157.08 138.144C151.32 138.144 144.383 134.928 136.926 128.696C126.77 120.209 116.813 107.119 108.891 91.8366C96.8867 68.6841 91.9419 44.9306 96.2899 31.322C97.7474 26.7634 100.173 23.5859 103.501 21.8786C111.14 17.9592 122.395 22.473 134.38 34.2627C134.572 34.4526 134.576 34.7632 134.386 34.9554C134.196 35.1476 133.886 35.1498 133.693 34.9621C122.029 23.4898 111.185 19.0385 103.951 22.7524C100.864 24.3367 98.6013 27.3198 97.2265 31.6214C92.9524 44.9954 97.8726 68.4518 109.763 91.3852C123.835 118.526 143.612 137.167 157.056 137.17C159.063 137.17 160.928 136.754 162.611 135.889C165.698 134.305 167.96 131.322 169.335 127.02C173.609 113.648 168.689 90.1897 156.799 67.2562C153.209 60.3335 149.185 53.8354 144.839 47.9428C144.678 47.7238 144.725 47.4177 144.942 47.2568C145.161 47.0959 145.467 47.1428 145.628 47.3596C150.005 53.2946 154.056 59.8352 157.668 66.8049C169.67 89.9573 174.618 113.711 170.267 127.32C168.81 131.878 166.384 135.056 163.056 136.763C161.256 137.688 159.251 138.144 157.08 138.144Z" fill="#0B0C0C"/>
<path d="M23.2669 156.943C23.2491 156.943 23.2312 156.943 23.2155 156.941L10.8423 155.611C10.7686 155.604 10.6993 155.58 10.6389 155.542C8.08382 155.133 4.86478 151.919 2.52428 147.403C0.0541144 142.637 -0.685817 137.989 0.680038 135.817L0.711324 135.752L7.15611 124.347C7.17622 124.311 7.20082 124.278 7.22988 124.249L23.6224 107.248C23.6425 107.226 23.6671 107.208 23.6917 107.19L65.671 77.2465L92.2281 21.4513C92.284 21.3329 92.3868 21.2413 92.512 21.1988C92.6371 21.1541 92.7735 21.1653 92.892 21.2234C93.129 21.3418 93.2407 21.6345 93.1289 21.8759C86.4025 36.2912 91.7117 64.9318 106.338 93.1433C120.987 121.4 141.39 142.311 157.107 145.18C157.36 145.227 157.534 145.459 157.507 145.714C157.481 145.969 157.262 146.143 157.007 146.154L156.575 146.143C156.551 146.143 156.528 146.139 156.506 146.136L95.5812 135.701L46.5803 153.22C46.5513 153.229 46.5222 153.238 46.4932 153.242L23.3519 156.938C23.3184 156.941 23.2915 156.943 23.2669 156.943ZM11.2134 154.664L23.2535 155.957L46.2853 152.279L95.3644 134.733C95.4449 134.704 95.5298 134.698 95.6125 134.711L150.468 144.105C135.645 137.605 118.322 118.399 105.462 93.5947C92.6975 68.9741 86.9971 43.9625 90.1178 28.1573L66.5004 77.7806C66.4646 77.8566 66.411 77.9214 66.3417 77.9683L24.2975 107.961L7.97875 124.886L1.55185 136.268C1.54291 136.286 1.53397 136.304 1.52279 136.32C0.35589 138.137 1.14277 142.608 3.39609 146.952C5.60471 151.211 8.80363 154.427 11.0055 154.596C11.0793 154.603 11.1508 154.626 11.2134 154.664Z" fill="#0B0C0C"/>
<path d="M66.1361 77.4032L92.6685 21.6616L92.6819 21.6683C86.0963 35.7842 90.8846 64.4069 105.9 93.3693C120.933 122.365 141.631 142.854 157.016 145.663L156.584 145.652L95.6327 135.212L94.2199 134.975C87.1358 133.726 77.6687 124.508 70.8998 111.38C63.952 97.9055 62.727 84.4667 65.8007 78.0825L66.1361 77.4032Z" fill="white"/>
<path d="M157.016 146.152C157.011 146.152 157.007 146.152 157.002 146.152L156.571 146.141C156.546 146.141 156.524 146.136 156.501 146.134L95.55 135.694L94.1394 135.46C86.6529 134.139 77.1411 124.553 70.4638 111.605C62.879 96.8952 62.5012 83.8073 65.3581 77.8722L65.6956 77.1907L92.2259 21.4513C92.2817 21.3329 92.3845 21.2413 92.5097 21.1988C92.6349 21.1541 92.7713 21.1653 92.8898 21.2234C93.1267 21.3418 93.2385 21.6345 93.1267 21.8759C86.4003 36.2912 91.7095 64.9318 106.336 93.1433C120.985 121.4 141.388 142.311 157.105 145.18C157.358 145.227 157.532 145.459 157.505 145.714C157.476 145.962 157.266 146.152 157.016 146.152ZM90.1201 28.1573L66.5786 77.6152C66.5786 77.6175 66.5764 77.6197 66.5741 77.6219L66.2388 78.3012C63.3976 84.2005 64.2336 97.3846 71.3334 111.156C77.8766 123.846 87.1067 133.223 94.3026 134.492L95.7109 134.727L150.468 144.105C135.645 137.605 118.322 118.399 105.462 93.5947C92.6975 68.9719 86.9971 43.9625 90.1201 28.1573Z" fill="#0B0C0C"/>
<path d="M22.5986 156.872C22.5807 156.872 22.5628 156.872 22.5449 156.87L10.8401 155.612C10.7664 155.605 10.6971 155.581 10.6367 155.543C8.08162 155.134 4.86259 151.92 2.52208 147.404C0.0519171 142.638 -0.688014 137.99 0.677841 135.818L0.70914 135.753L7.15391 124.348C7.28803 124.113 7.58758 124.03 7.8223 124.162C8.05926 124.296 8.14198 124.596 8.00785 124.83L1.54965 136.267C1.54071 136.285 1.53177 136.303 1.52059 136.318C0.353693 138.135 1.14057 142.607 3.39389 146.951C5.60251 151.21 8.80144 154.425 11.0033 154.595C11.0794 154.602 11.1509 154.624 11.2135 154.662L22.6522 155.891C22.9227 155.92 23.1172 156.161 23.0881 156.432C23.0591 156.684 22.8467 156.872 22.5986 156.872Z" fill="#0B0C0C"/>
<path d="M23.3742 156.384C19.5672 156.114 14.2536 150.726 10.3929 143.285C6.30432 135.399 5.34533 127.239 7.84679 124.336L1.15388 135.965L1.1114 136.054C-0.153859 138.023 0.56818 142.561 2.9601 147.178C5.32743 151.743 8.62695 154.905 10.9675 155.086L10.8959 155.122L23.3742 156.384Z" fill="white"/>
<path d="M23.3742 156.874C23.3631 156.874 23.3496 156.874 23.3385 156.872C23.2423 156.865 23.1462 156.856 23.0479 156.843L10.8446 155.609C10.7686 155.602 10.6993 155.578 10.6389 155.54C8.08382 155.131 4.86478 151.918 2.52428 147.401C0.0541144 142.635 -0.685817 137.987 0.680038 135.815L0.711324 135.75L6.59501 125.523C6.82302 124.937 7.11586 124.428 7.47353 124.012C7.63896 123.82 7.92286 123.786 8.12852 123.932C8.33418 124.079 8.39677 124.359 8.26935 124.577L7.45342 125.996C6.13451 129.549 7.44 136.524 10.8267 143.055C14.5241 150.186 19.5449 155.388 23.1507 155.866L23.4189 155.893C23.685 155.92 23.8817 156.157 23.8593 156.422C23.8414 156.682 23.6268 156.874 23.3742 156.874ZM11.2112 154.662L19.7528 155.526C16.46 153.435 12.8475 149.084 9.95934 143.511C7.16504 138.121 5.77236 132.542 6.00485 128.519L1.55185 136.269C1.54291 136.287 1.53397 136.305 1.52279 136.32C0.35589 138.137 1.14277 142.608 3.39609 146.952C5.60471 151.211 8.80363 154.427 11.0055 154.597C11.0771 154.604 11.1486 154.626 11.2112 154.662Z" fill="#0B0C0C"/>
<path d="M45.5632 152.89L46.5423 152.694C41.2153 153.802 32.8145 145.775 26.8861 134.337C20.8392 122.672 19.6857 111.023 23.9756 107.586L23.4279 108.154L7.89155 124.283C5.33644 127.143 6.28427 135.351 10.3952 143.282C14.3632 150.935 19.9697 156.374 23.7878 156.354L45.5632 152.89Z" fill="#0B0C0C"/>
<path d="M23.7655 156.847C19.7059 156.847 14.0346 151.368 9.95938 143.509C5.79252 135.474 4.74635 127.069 7.525 123.959L22.764 108.138C23.0345 107.783 23.3363 107.47 23.6693 107.204C23.8705 107.043 24.1634 107.065 24.3377 107.255C24.5121 107.448 24.5076 107.74 24.3288 107.926L23.4458 108.842C20.3408 113.009 21.8877 123.628 27.3221 134.111C33.1856 145.422 41.3584 153.183 46.377 152.226L46.4485 152.213C46.7145 152.157 46.9716 152.331 47.0252 152.595C47.0789 152.861 46.909 153.118 46.6452 153.174C46.6206 153.18 46.5938 153.185 46.5692 153.189L45.6616 153.37C45.6549 153.373 45.6482 153.373 45.6415 153.375L23.8638 156.841C23.8303 156.845 23.7968 156.847 23.7655 156.847ZM21.4563 110.909L8.24257 124.627C5.77464 127.389 6.90577 135.492 10.829 143.06C14.6739 150.477 20.0994 155.851 23.7454 155.869L42.9657 152.81C37.7795 150.984 31.3816 144.079 26.4502 134.566C21.7648 125.528 19.9652 116.312 21.4563 110.909Z" fill="#0B0C0C"/>
<path d="M117.229 68.5034C113.729 70.3 114.243 78.5903 118.711 86.8448C126.207 100.686 132.162 99.0479 132.862 98.7954C132.875 98.7909 132.882 98.8088 132.871 98.8155L120.006 109.166C116.235 103.866 112.624 97.973 109.327 91.609C106.166 85.5108 103.522 79.4283 101.411 73.5379L117.229 68.5034Z" fill="#0B0C0C"/>
<path d="M120.006 109.658C119.983 109.658 119.961 109.656 119.939 109.653C119.805 109.635 119.684 109.562 119.606 109.452C115.734 104.011 112.128 98.0849 108.891 91.837C105.784 85.8439 103.113 79.7435 100.949 73.7056C100.904 73.5805 100.911 73.442 100.971 73.3235C101.031 73.2051 101.134 73.1135 101.262 73.0733L117.08 68.0387C117.323 67.9628 117.585 68.0834 117.683 68.3203C117.782 68.5549 117.681 68.8276 117.453 68.9438C116.697 69.3303 116.141 70.0879 115.799 71.194C114.71 74.7112 116.054 80.9077 119.143 86.6148C126.453 100.116 132.077 98.5609 132.696 98.3374C132.918 98.257 133.179 98.3508 133.298 98.5564C133.418 98.7642 133.367 99.048 133.181 99.2L120.314 109.551C120.225 109.62 120.118 109.658 120.006 109.658ZM102.044 73.8531C104.161 79.6943 106.756 85.5891 109.761 91.3856C112.895 97.4302 116.373 103.171 120.104 108.458L131.261 99.4815C128.704 99.3586 123.902 97.4615 118.278 87.0774C115.021 81.0619 113.68 74.7112 114.86 70.899C115.012 70.4096 115.202 69.9717 115.43 69.5895L102.044 73.8531Z" fill="#0B0C0C"/>
</g>
</svg>
