<svg width="102" height="103" viewBox="0 0 102 103" fill="none" xmlns="http://www.w3.org/2000/svg">
<g opacity="0.03" clip-path="url(#clip0_1261_17201)">
<path d="M68.2328 96.7436C69.6672 96.4016 76.1418 93.0018 78.891 91.151C82.457 88.757 84.4691 87.1275 87.4773 84.0898C97.2191 74.3129 100.905 64.033 101.801 44.1572C101.941 41.3006 102 33.3141 101.961 24.543C101.901 10.8029 101.881 9.69648 101.542 9.03262C101.064 8.08711 100.128 7.12148 99.1316 6.57832L98.3148 6.13574L81.0824 6.13574C66.9977 6.13575 63.7105 6.1961 63.073 6.41739C62.0969 6.75938 60.8617 7.88594 60.3039 8.93204L59.8656 9.75684L59.8059 26.9369C59.7461 45.827 59.7262 45.4045 60.9613 46.9133C61.2801 47.3156 62.0172 47.8789 62.5949 48.1606L63.6309 48.6836L71.8586 48.6836L80.0863 48.6836L80.0863 50.1522C80.0863 53.3709 79.3094 57.8973 78.1938 61.277C75.6637 68.9215 71.2609 73.7496 62.9535 77.9541C61.3399 78.7789 59.766 79.7043 59.4074 80.0865C58.491 81.032 58.1125 82.1988 58.2121 83.7277C58.2918 84.8543 58.5707 85.5785 60.6625 89.9842C63.1129 95.1543 63.5711 95.8584 65.0254 96.4619C65.9219 96.8441 67.3164 96.9648 68.2328 96.7436Z" fill="#0B0C0C"/>
<path d="M11.5547 96.0998C24.9621 90.1854 35.182 80.1268 39.7043 68.3984C40.9992 65.059 42.1547 59.9693 42.8121 54.7188C43.6488 48.1404 43.7285 45.666 43.7285 27.3594C43.7285 10.4811 43.7086 9.7166 43.35 8.99238C42.8719 8.00664 42.0152 7.1416 40.9594 6.57832L40.1426 6.13574L22.8105 6.13574C5.61797 6.13575 5.47852 6.13575 4.58204 6.55821C3.50626 7.06114 2.70938 7.84571 2.11173 8.95215C1.69336 9.75684 1.69336 9.79707 1.6336 26.9369C1.57384 45.827 1.55391 45.4045 2.78907 46.9133C3.10782 47.3156 3.84493 47.8789 4.42266 48.1606L5.4586 48.6836L13.7859 48.6836C21.8941 48.6836 22.1133 48.6836 22.1133 49.0658C22.1133 50.5746 21.5953 55.0205 21.1969 57.0322C20.5793 60.1303 19.9219 62.1219 18.627 64.8779C15.8777 70.7119 11.6942 74.6348 4.58204 78.0949C0.916419 79.8652 0.119544 80.8108 0.0996199 83.3858C0.0996201 84.7738 0.139465 84.8543 2.39064 89.5819C3.64571 92.1971 4.94064 94.6916 5.25939 95.094C6.67384 96.824 9.04454 97.2063 11.5547 96.0998Z" fill="#0B0C0C"/>
</g>
<defs>
<clipPath id="clip0_1261_17201">
<rect width="102" height="103" fill="white" transform="translate(102 103) rotate(180)"/>
</clipPath>
</defs>
</svg>
