<svg width="39" height="26" viewBox="0 0 39 26" fill="none" xmlns="http://www.w3.org/2000/svg">
<rect x="1.14258" y="0.500092" width="37.0685" height="24.9999" rx="3.5" fill="white" stroke="#D9D9D9"/>
<path d="M16.959 24.9168L37.6247 18.6876V21.9168C37.6247 23.5736 36.2816 24.9168 34.6247 24.9168H16.959Z" fill="#FD6020"/>
<path fill-rule="evenodd" clip-rule="evenodd" d="M33.7024 9.87005C34.8394 9.87005 35.4647 10.3939 35.4647 11.3833C35.5215 12.14 35.0099 12.7802 34.3277 12.8967L35.8626 15.0502H34.6688L33.3613 12.9549H33.2476V15.0502H32.2812V9.87005H33.7024ZM33.248 12.2566H33.5323C34.1576 12.2566 34.4418 11.9656 34.4418 11.4418C34.4418 10.9761 34.1576 10.6851 33.5323 10.6851H33.248V12.2566ZM28.9277 15.0504H31.6564V14.1774H29.8941V12.7805H31.5995V11.9074H29.8941V10.7433H31.6564V9.87029H28.9277V15.0504ZM26.0846 13.3625L24.7771 9.87029H23.7539L25.8572 15.1669H26.3689L28.4722 9.87029H27.449L26.0846 13.3625ZM14.5449 12.4894C14.5449 13.9445 15.6819 15.1667 17.103 15.1667C17.5578 15.1667 17.9557 15.0503 18.3537 14.8757V13.7116C18.0694 14.0609 17.6715 14.2937 17.2167 14.2937C16.3072 14.2937 15.5682 13.5952 15.5682 12.664V12.5476C15.5113 11.6163 16.2503 10.8015 17.1599 10.7432C17.6146 10.7432 18.0694 10.9761 18.3537 11.3253V10.1612C18.0126 9.92839 17.5578 9.87019 17.1599 9.87019C15.6819 9.75378 14.5449 10.9761 14.5449 12.4894ZM12.7805 11.8492C12.2121 11.6164 12.0415 11.5 12.0415 11.209C12.0984 10.8597 12.3826 10.5687 12.7237 10.6269C13.0079 10.6269 13.2922 10.8015 13.5196 11.0343L14.0312 10.3359C13.6332 9.98668 13.1216 9.75386 12.61 9.75386C11.8142 9.69566 11.132 10.3359 11.0751 11.1508V11.209C11.0751 11.9074 11.3594 12.3148 12.2689 12.6059C12.4963 12.6641 12.7237 12.7805 12.9511 12.8969C13.1216 13.0133 13.2353 13.1879 13.2353 13.4207C13.2353 13.8281 12.8942 14.1774 12.5532 14.1774H12.4963C12.0415 14.1774 11.6436 13.8863 11.4731 13.4789L10.8478 14.1192C11.1888 14.7594 11.871 15.1086 12.5532 15.1086C13.4627 15.1668 14.2017 14.4684 14.2586 13.5371V13.3625C14.2017 12.6641 13.9175 12.3148 12.7805 11.8492ZM9.48438 15.0504H10.4508V9.87029H9.48438V15.0504ZM4.99414 9.87029H6.41531H6.69955C8.06387 9.92849 9.14396 11.0926 9.08711 12.4895C9.08711 13.2461 8.74603 13.9446 8.17756 14.4684C7.66594 14.8758 7.04063 15.1086 6.41531 15.0504H4.99414V9.87029ZM6.24517 14.1775C6.69995 14.2357 7.21157 14.0611 7.55265 13.7701C7.89373 13.4208 8.06427 12.9552 8.06427 12.4314C8.06427 11.9657 7.89373 11.5001 7.55265 11.1509C7.21157 10.8599 6.69995 10.6853 6.24517 10.7435H5.96094V14.1775H6.24517Z" fill="black"/>
<path fill-rule="evenodd" clip-rule="evenodd" d="M21.2497 9.75003C19.8285 9.75003 18.6348 10.9141 18.6348 12.4274C18.6348 13.8825 19.7717 15.1048 21.2497 15.163C22.7277 15.2212 23.8647 13.9989 23.9215 12.4856C23.8647 10.9723 22.7277 9.75003 21.2497 9.75003V9.75003Z" fill="#FD6020"/>
</svg>
