<svg width="39" height="26" viewBox="0 0 39 26" fill="none" xmlns="http://www.w3.org/2000/svg">
<rect x="0.5" y="0.500092" width="37.0685" height="24.9999" rx="3.5" fill="white" stroke="#D9D9D9"/>
<path fill-rule="evenodd" clip-rule="evenodd" d="M11.5568 17.613H9.25059L7.52121 11.0417C7.43912 10.7394 7.26484 10.4722 7.00847 10.3462C6.36866 10.0297 5.66364 9.77778 4.89453 9.65074V9.39774H8.60966C9.1224 9.39774 9.50696 9.77778 9.57105 10.2192L10.4683 14.9593L12.7734 9.39774H15.0156L11.5568 17.613ZM16.2972 17.613H14.1191L15.9126 9.39774H18.0906L16.2972 17.613ZM20.9094 11.6737C20.9735 11.2312 21.3581 10.9782 21.8067 10.9782C22.5117 10.9147 23.2797 11.0417 23.9207 11.3571L24.3052 9.58836C23.6643 9.33536 22.9593 9.20831 22.3195 9.20831C20.2055 9.20831 18.6673 10.3462 18.6673 11.9256C18.6673 13.127 19.7569 13.7579 20.526 14.1379C21.3581 14.5169 21.6785 14.7699 21.6144 15.1488C21.6144 15.7172 20.9735 15.9702 20.3337 15.9702C19.5646 15.9702 18.7955 15.7807 18.0916 15.4642L17.707 17.2341C18.4761 17.5495 19.3082 17.6766 20.0773 17.6766C22.4476 17.739 23.9207 16.6022 23.9207 14.8958C23.9207 12.747 20.9094 12.621 20.9094 11.6737ZM31.5441 17.613L29.8147 9.39774H27.9571C27.5725 9.39774 27.188 9.65074 27.0598 10.0297L23.8574 17.613H26.0995L26.5471 16.4126H29.3019L29.5583 17.613H31.5441ZM28.2748 11.6101L28.9146 14.7063H27.1211L28.2748 11.6101Z" fill="#172B85"/>
</svg>
