<svg width="39" height="26" viewBox="0 0 39 26" fill="none" xmlns="http://www.w3.org/2000/svg">
<rect x="0.609375" y="0.5" width="37.0685" height="24.9999" rx="3.5" fill="white" stroke="#D9D9D9"/>
<path fill-rule="evenodd" clip-rule="evenodd" d="M10.878 16.5112H9.186C9.07021 16.5112 8.97174 16.595 8.95368 16.7088L8.26935 21.0303C8.25575 21.1156 8.32205 21.1924 8.4089 21.1924H9.21667C9.33246 21.1924 9.43093 21.1086 9.44899 20.9946L9.63356 19.829C9.65136 19.7149 9.75008 19.6312 9.86562 19.6312H10.4013C11.5158 19.6312 12.159 19.0939 12.3271 18.0294C12.4028 17.5637 12.3303 17.1978 12.1113 16.9414C11.8709 16.6601 11.4443 16.5112 10.878 16.5112ZM11.0732 18.0895C10.9807 18.6943 10.5168 18.6943 10.0683 18.6943H9.81292L9.99205 17.5649C10.0027 17.4967 10.0621 17.4464 10.1313 17.4464H10.2484C10.5539 17.4464 10.8422 17.4464 10.9911 17.6198C11.0798 17.7234 11.1071 17.8771 11.0732 18.0895ZM15.9358 18.0701H15.1255C15.0565 18.0701 14.9968 18.1204 14.9862 18.1887L14.9504 18.4144L14.8937 18.3326C14.7183 18.079 14.3272 17.9943 13.9368 17.9943C13.0413 17.9943 12.2766 18.6697 12.1277 19.6173C12.0503 20.0898 12.1603 20.5417 12.4295 20.8569C12.6764 21.1467 13.0298 21.2675 13.4501 21.2675C14.1715 21.2675 14.5716 20.8054 14.5716 20.8054L14.5354 21.0297C14.5218 21.1154 14.5881 21.1923 14.6744 21.1923H15.4043C15.5204 21.1923 15.6183 21.1085 15.6366 20.9945L16.0746 18.2323C16.0884 18.1473 16.0223 18.0701 15.9358 18.0701ZM14.8063 19.6409C14.7281 20.1019 14.3607 20.4114 13.8922 20.4114C13.6569 20.4114 13.4688 20.3362 13.3482 20.1938C13.2284 20.0524 13.1828 19.851 13.221 19.6268C13.294 19.1697 13.6676 18.8501 14.129 18.8501C14.359 18.8501 14.5461 18.9262 14.6693 19.0699C14.7927 19.2151 14.8417 19.4176 14.8063 19.6409ZM19.4368 18.07H20.2511C20.3651 18.07 20.4317 18.1974 20.3669 18.2906L17.6588 22.1839C17.6149 22.247 17.5427 22.2845 17.4655 22.2845H16.6523C16.5378 22.2845 16.4709 22.1561 16.5372 22.0627L17.3805 20.8772L16.4836 18.2558C16.4526 18.1647 16.5202 18.07 16.6175 18.07H17.4175C17.5215 18.07 17.6132 18.138 17.6432 18.2371L18.1192 19.8203L19.2422 18.1728C19.2862 18.1085 19.3592 18.07 19.4368 18.07Z" fill="#253B80"/>
<path fill-rule="evenodd" clip-rule="evenodd" d="M28.2645 21.0302L28.9589 16.6298C28.9695 16.5614 29.0289 16.5112 29.098 16.5109H29.8797C29.966 16.5109 30.0323 16.588 30.0187 16.6733L29.3339 20.9946C29.3161 21.1086 29.2176 21.1924 29.1016 21.1924H28.4035C28.3171 21.1924 28.2508 21.1155 28.2645 21.0302ZM22.9464 16.5112H21.2541C21.1386 16.5112 21.0401 16.595 21.022 16.7088L20.3377 21.0302C20.3241 21.1155 20.3904 21.1924 20.4768 21.1924H21.3451C21.4259 21.1924 21.4949 21.1338 21.5075 21.054L21.7017 19.829C21.7195 19.7148 21.8182 19.6311 21.9337 19.6311H22.4691C23.5839 19.6311 24.227 19.0939 24.3952 18.0294C24.4711 17.5637 24.3982 17.1978 24.1793 16.9414C23.9389 16.6601 23.5127 16.5112 22.9464 16.5112ZM23.1416 18.0895C23.0493 18.6942 22.5854 18.6942 22.1366 18.6942H21.8815L22.0609 17.5648C22.0716 17.4966 22.1304 17.4464 22.1999 17.4464H22.3169C22.6223 17.4464 22.9108 17.4464 23.0597 17.6198C23.1485 17.7233 23.1755 17.8771 23.1416 18.0895ZM28.0038 18.0701H27.1941C27.1245 18.0701 27.0654 18.1204 27.055 18.1887L27.0191 18.4144L26.9622 18.3326C26.7868 18.079 26.3959 17.9943 26.0055 17.9943C25.1101 17.9943 24.3456 18.6697 24.1967 19.6172C24.1195 20.0898 24.2291 20.5417 24.4982 20.8569C24.7457 21.1467 25.0985 21.2674 25.5188 21.2674C26.2402 21.2674 26.6403 20.8054 26.6403 20.8054L26.6042 21.0297C26.5906 21.1154 26.6569 21.1923 26.7438 21.1923H27.4733C27.5888 21.1923 27.6873 21.1085 27.7054 20.9944L28.1436 18.2323C28.1569 18.1473 28.0907 18.0701 28.0038 18.0701ZM26.8744 19.6408C26.7967 20.1019 26.4288 20.4114 25.9602 20.4114C25.7254 20.4114 25.5369 20.3362 25.4161 20.1938C25.2964 20.0524 25.2514 19.851 25.289 19.6268C25.3624 19.1696 25.7356 18.8501 26.197 18.8501C26.4271 18.8501 26.6141 18.9262 26.7374 19.0699C26.8612 19.215 26.9102 19.4176 26.8744 19.6408Z" fill="#179BD7"/>
<path d="M17.1417 14.9649L17.3497 13.649L16.8864 13.6383H14.6738L16.2115 3.92749C16.2162 3.89817 16.2317 3.87083 16.2544 3.85142C16.2771 3.83202 16.3061 3.82132 16.3364 3.82132H20.0671C21.3057 3.82132 22.1603 4.07802 22.6066 4.58469C22.8158 4.82239 22.9491 5.07077 23.0135 5.34411C23.0811 5.63093 23.0823 5.97359 23.0163 6.39153L23.0115 6.42203V6.68982L23.2208 6.80788C23.397 6.90097 23.5369 7.00753 23.6443 7.12955C23.8233 7.33277 23.9391 7.59106 23.988 7.89728C24.0385 8.21222 24.0218 8.58698 23.9391 9.01125C23.8436 9.49931 23.6893 9.92438 23.4809 10.2722C23.2891 10.5927 23.0449 10.8584 22.755 11.0645C22.4782 11.2602 22.1492 11.4088 21.7774 11.5039C21.4169 11.5973 21.0061 11.6445 20.5555 11.6445H20.2652C20.0576 11.6445 19.8558 11.7189 19.6976 11.8525C19.5389 11.9888 19.4338 12.1749 19.4017 12.3785L19.3798 12.497L19.0123 14.8164L18.9956 14.9015C18.9912 14.9286 18.9837 14.942 18.9725 14.9511C18.9626 14.9594 18.9483 14.9649 18.9343 14.9649H17.1417Z" fill="#253B80"/>
<path d="M23.4186 6.45309C23.4075 6.524 23.3948 6.59649 23.3805 6.67097C22.8884 9.18691 21.2052 10.0561 19.0554 10.0561H17.9609C17.698 10.0561 17.4765 10.2462 17.4355 10.5045L16.875 14.0445L16.7163 15.0479C16.6897 15.2175 16.821 15.3704 16.9927 15.3704H18.9342C19.1641 15.3704 19.3593 15.204 19.3955 14.9782L19.4146 14.8799L19.7801 12.5696L19.8036 12.4429C19.8393 12.2163 20.035 12.0499 20.2649 12.0499H20.5553C22.4361 12.0499 23.9086 11.2893 24.339 9.08827C24.5187 8.16881 24.4257 7.40108 23.9499 6.86112C23.806 6.6983 23.6274 6.56322 23.4186 6.45309Z" fill="#179BD7"/>
<path d="M22.9021 6.24867C22.827 6.22688 22.7493 6.20707 22.6698 6.18925C22.5899 6.17182 22.5079 6.15637 22.4236 6.1429C22.1285 6.09536 21.8051 6.07278 21.4587 6.07278H18.5345C18.4625 6.07278 18.3942 6.08902 18.3329 6.11834C18.1981 6.18291 18.0979 6.31008 18.0736 6.46576L17.4515 10.39L17.4336 10.5045C17.4746 10.2462 17.6961 10.056 17.959 10.056H19.0535C21.2034 10.056 22.8866 9.18651 23.3786 6.67097C23.3932 6.59649 23.4056 6.524 23.4167 6.45309C23.2923 6.38733 23.1574 6.33107 23.0122 6.28313C22.9765 6.27125 22.9395 6.25977 22.9021 6.24867Z" fill="#222D65"/>
<path d="M18.0738 6.4659C18.0981 6.31021 18.1983 6.18305 18.3331 6.11887C18.3948 6.08955 18.4628 6.07331 18.5347 6.07331H21.459C21.8054 6.07331 22.1287 6.09589 22.4238 6.14343C22.5082 6.1569 22.5901 6.17235 22.6701 6.18977C22.7496 6.20761 22.8271 6.22742 22.9024 6.2492C22.9397 6.26029 22.9767 6.27178 23.0128 6.28327C23.158 6.3312 23.2929 6.38785 23.4173 6.45322C23.5638 5.52346 23.4162 4.89041 22.9115 4.31718C22.3551 3.68613 21.3508 3.41595 20.0657 3.41595H16.3349C16.0723 3.41595 15.8485 3.6061 15.8079 3.86478L14.254 13.6754C14.2233 13.8695 14.3736 14.0446 14.5701 14.0446H16.8734L17.4517 10.3901L18.0738 6.4659Z" fill="#253B80"/>
</svg>
