<svg width="39" height="26" viewBox="0 0 39 26" fill="none" xmlns="http://www.w3.org/2000/svg">
<rect x="0.789062" y="0.500092" width="37.0685" height="24.9999" rx="3.5" fill="white" stroke="#D9D9D9"/>
<path fill-rule="evenodd" clip-rule="evenodd" d="M20.7424 8.82032L18.8086 9.23368V7.67209L20.7424 7.26639V8.82032ZM12.8856 8.15443L11.0058 8.55248L10.998 14.684C10.998 15.8169 11.8532 16.6513 12.9935 16.6513C13.6252 16.6513 14.0875 16.5365 14.3417 16.3987V14.8448C14.0952 14.9443 12.8779 15.2964 12.8779 14.1635V11.446H14.3417V9.81553H12.8779L12.8856 8.15443ZM8.33064 11.3465C7.92231 11.3465 7.67577 11.4613 7.67577 11.7599C7.67577 12.0858 8.10007 12.2292 8.62646 12.4071C9.4846 12.6971 10.6141 13.0788 10.6188 14.4926C10.6188 15.8629 9.51711 16.6513 7.9146 16.6513C7.25203 16.6513 6.52782 16.5212 5.81131 16.215V14.3931C6.45848 14.7453 7.27514 15.0055 7.9146 15.0055C8.34605 15.0055 8.65422 14.8907 8.65422 14.5386C8.65422 14.1775 8.19428 14.0125 7.63899 13.8132C6.79333 13.5098 5.72656 13.127 5.72656 11.8517C5.72656 10.4968 6.76665 9.6854 8.33064 9.6854C8.9701 9.6854 9.60186 9.78492 10.2413 10.0375V11.8364C9.65579 11.5226 8.91617 11.3465 8.33064 11.3465ZM30.6813 9.6854C32.5073 9.6854 33.4626 11.2317 33.4626 13.1913C33.4626 13.2971 33.4575 13.4741 33.4532 13.6241C33.45 13.7346 33.4472 13.8304 33.4472 13.8726H29.6798C29.7645 14.7759 30.4271 15.0361 31.1744 15.0361C31.9371 15.0361 32.5381 14.8754 33.062 14.6151V16.1461C32.5381 16.437 31.8447 16.6437 30.9279 16.6437C29.048 16.6437 27.7383 15.4801 27.7383 13.176C27.7383 11.2317 28.8477 9.6854 30.6813 9.6854ZM30.6732 11.2392C30.1879 11.2392 29.6562 11.599 29.6562 12.464H31.644C31.644 11.599 31.1432 11.2392 30.6732 11.2392ZM16.7366 10.3818L16.6134 9.81535H14.9492V16.5133H16.8753V11.974C17.3299 11.3846 18.1003 11.4918 18.3391 11.576V9.81535C18.0926 9.72349 17.1912 9.55508 16.7366 10.3818ZM18.8086 9.8155H20.7424V16.5135H18.8086V9.8155ZM24.7661 9.68565C24.0111 9.68565 23.5257 10.0378 23.2561 10.2827L23.1559 9.80812H21.4609V18.7337L23.387 18.328L23.3947 16.1617C23.6721 16.3607 24.0804 16.6439 24.7584 16.6439C26.1375 16.6439 27.3933 15.5416 27.3933 13.115C27.3856 10.8951 26.1144 9.68565 24.7661 9.68565ZM24.3035 14.9597C23.849 14.9597 23.5793 14.7989 23.3944 14.5999L23.3867 11.76C23.587 11.538 23.8644 11.3849 24.3035 11.3849C25.0046 11.3849 25.49 12.1657 25.49 13.1685C25.49 14.1942 25.0123 14.9597 24.3035 14.9597Z" fill="#6461FC"/>
</svg>
