<svg width="58" height="56" viewBox="0 0 58 56" fill="none" xmlns="http://www.w3.org/2000/svg">
<mask id="mask0_1292_1706" style="mask-type:luminance" maskUnits="userSpaceOnUse" x="0" y="0" width="58" height="56">
<path d="M19.9722 0.509048L0.678167 33.9272L38.0281 55.4912L57.3221 22.073L19.9722 0.509048Z" fill="white"/>
</mask>
<g mask="url(#mask0_1292_1706)">
<path d="M45.6311 24.352C37.7841 28.407 29.9041 32.519 22.0561 36.574C21.9161 36.415 21.7501 36.165 21.6091 36.006C23.6141 33.606 25.6541 31.149 27.6021 28.716C28.7391 27.283 29.8171 25.818 30.6631 24.218C32.4231 20.902 30.8241 18.433 27.0611 18.503C25.7951 18.546 24.4051 18.671 23.2381 19.08C17.5531 21.135 11.9521 23.315 6.32613 25.404C5.92613 25.559 5.49213 25.774 5.23313 26.087C5.00713 26.344 4.76313 26.9 4.89613 27.208C5.11113 27.642 5.65013 28.185 6.01713 28.088C7.20013 27.919 8.30013 27.626 9.43313 27.275C13.9751 25.721 18.5841 24.051 23.1851 22.53C24.5351 22.072 26.0751 21.956 28.2331 21.577C27.3291 23.144 26.9091 24.139 26.2571 25C23.1811 28.716 19.9891 32.364 16.9131 36.08C16.2031 36.907 15.4341 37.7 15.0731 38.73C14.7201 39.609 14.5251 40.888 14.8961 41.722C15.4261 42.955 16.8071 42.98 18.0321 42.604C19.1661 42.253 20.2991 41.902 21.3821 41.367C27.7371 38.152 34.0001 34.962 40.3541 31.747C41.3461 31.237 42.3971 30.76 44.0401 29.93C42.0881 33.444 38.6041 34.913 37.7241 39.123C39.1321 38.698 40.0741 38.546 40.7911 38.109C46.2391 34.449 51.0741 29.969 55.4531 25.072C57.3161 23.054 56.5401 20.905 53.7781 20.316C52.5301 20.059 51.2151 19.919 49.9411 20.111C46.4261 20.557 42.9361 21.094 39.4131 21.69C38.8051 21.803 37.9871 22.414 37.8691 22.887C37.7161 23.958 38.6551 24.347 39.5871 24.343C41.6021 24.346 43.6841 24.233 45.6741 24.144C45.5571 24.077 45.6071 24.26 45.6311 24.352Z" fill="#FF7A00"/>
</g>
</svg>
