<svg width="47" height="18" viewBox="0 0 47 18" fill="none" xmlns="http://www.w3.org/2000/svg">
<g clip-path="url(#clip0_1292_1700)">
<mask id="mask0_1292_1700" style="mask-type:luminance" maskUnits="userSpaceOnUse" x="0" y="0" width="47" height="18">
<path d="M0 0H47V18H0V0Z" fill="white"/>
</mask>
<g mask="url(#mask0_1292_1700)">
<path d="M42.9838 7.27787C42.2038 8.48087 41.4778 9.51287 40.8098 10.5449C38.4128 14.0409 35.2908 16.4479 31.2218 17.5949C28.2668 18.3969 25.4798 18.0529 23.0828 16.1619C20.6859 14.2699 18.4008 12.1499 16.1148 10.1429C14.9448 9.11187 13.8848 8.02287 12.7148 7.04787C10.5968 5.38587 9.09085 5.38587 6.80585 6.81887C4.07485 8.53887 2.34585 11.3469 1.67785 15.2439C-0.0501516 14.9579 -0.162152 13.5819 0.116849 12.3789C0.450849 10.8889 0.952849 9.34087 1.73285 8.07987C2.62485 6.64687 3.79585 5.27087 5.07785 4.23987C8.31085 1.60287 11.3768 1.54587 14.6658 4.06787C16.6158 5.55787 18.2888 7.33487 20.1288 8.93987C21.819 10.4548 23.5475 11.9263 25.3128 13.3529C26.6508 14.4429 28.2118 14.6709 29.8828 14.3849C32.4478 13.9259 34.5658 12.7229 36.4058 10.7739C36.7958 10.3729 37.1298 9.97087 37.4648 9.51287C38.9148 7.56387 40.3638 5.61487 41.9248 3.49487C38.3568 4.41187 35.0678 5.27087 31.7228 6.13087C31.6678 6.13087 31.4998 5.84487 31.3328 5.61487C31.5558 5.38587 31.7228 4.98487 31.9458 4.86987C35.0678 3.32287 38.1898 1.65987 41.4228 0.399868C43.9308 -0.575132 45.4358 0.227868 46.1048 2.86387C46.7188 5.15687 46.8848 7.56387 46.9968 9.91387C47.0528 10.4869 46.2728 11.4039 45.7148 11.6339C45.3808 11.8059 44.3768 11.1179 44.0978 10.6019C43.5408 9.68487 43.3738 8.59587 42.9838 7.27787Z" fill="#F194C1"/>
</g>
</g>
<defs>
<clipPath id="clip0_1292_1700">
<rect width="47" height="18" fill="white"/>
</clipPath>
</defs>
</svg>
