<svg width="59" height="52" viewBox="0 0 59 52" fill="none" xmlns="http://www.w3.org/2000/svg">
<g clip-path="url(#clip0_1292_1694)">
<mask id="mask0_1292_1694" style="mask-type:luminance" maskUnits="userSpaceOnUse" x="0" y="0" width="59" height="52">
<path d="M0 0H59V52H0V0Z" fill="white"/>
</mask>
<g mask="url(#mask0_1292_1694)">
<path d="M53.1909 26.7976C51.6491 25.8409 50.3915 25.1466 49.1944 24.3735C48.505 23.9055 47.7349 23.3771 48.5229 22.1061C51.122 23.3549 53.7451 24.3444 56.0764 25.9702C57.0693 26.6408 57.1237 27.3619 56.5422 28.4356C56.3342 28.8332 56.0454 29.1697 55.7969 29.4871C54.3732 31.2107 52.9486 32.9351 51.4636 34.6381C50.9884 35.2132 50.4116 35.7867 49.6214 35.2178C48.9118 34.71 48.9809 33.9308 49.3543 33.2548C49.7906 32.4992 50.327 31.8454 50.8441 31.1518C51.2151 30.6754 51.6281 30.1806 51.7981 29.5023L51.0606 29.8541C48.3133 31.1633 47.0098 30.9889 44.7026 29.003C42.8814 27.3826 41.4506 25.5266 40.5749 23.257C40.3607 22.7287 40.148 22.1998 39.9368 21.6702C38.9579 19.4985 37.7367 19.1849 35.9264 20.7449C35.0002 21.5349 34.2355 22.5466 33.4111 23.4367C30.9774 26.1896 28.8324 26.4657 25.7512 24.3513C23.4401 22.7661 21.5412 20.7847 20.1361 18.369C19.7146 17.6242 19.2736 16.8396 18.7488 16.1934C17.8615 15.1236 17.0867 15.0953 16.26 16.1858C15.3517 17.316 14.6662 18.5877 13.9194 19.8395C13.3806 20.6937 12.9839 21.6289 12.3846 22.4625C11.144 24.1486 9.44158 25.1091 7.26246 24.7053C5.63297 24.3865 3.98485 23.9284 2.39806 23.3908C1.36091 23.0391 0.531801 22.2896 0.526367 20.7503C1.05504 20.8956 1.48201 21.0409 1.95013 21.1655C3.61921 21.6641 5.28674 22.1635 6.99696 22.542C8.64663 22.9006 9.8375 22.1336 10.6255 20.7625C11.29 19.5505 11.8326 18.2963 12.5173 17.1241C13.1601 16.0711 13.7827 14.9783 14.6274 14.1279C16.4207 12.2276 18.8474 12.3156 20.5212 14.3535C21.2882 15.2819 21.9302 16.3693 22.5116 17.4353C23.7157 19.5489 25.4135 21.2282 27.4001 22.5703C29.063 23.6684 29.8602 23.5376 31.1792 22.1122C32.2722 20.9445 33.2636 19.6759 34.4972 18.6894C35.2789 18.018 36.3852 17.5905 37.4472 17.3818C39.2878 17.0032 40.7488 17.7993 41.6113 19.4289C42.0515 20.3136 42.4707 21.2581 42.7471 22.2216C43.4403 24.4293 44.934 26.1063 46.5929 27.6043C47.4019 28.3132 48.2566 28.6031 49.3636 28.0754C50.4699 27.5478 51.6561 27.2793 53.1909 26.7976Z" fill="#00340F"/>
</g>
</g>
<defs>
<clipPath id="clip0_1292_1694">
<rect width="59" height="52" fill="white"/>
</clipPath>
</defs>
</svg>
